<svg width="24" height="22" viewBox="0 0 24 22" fill="none" xmlns="http://www.w3.org/2000/svg">
<path d="M0.796875 7.85352L0.795898 7.84082C0.736668 6.02899 1.36776 4.27156 2.54102 2.95312C3.63984 1.71847 5.12902 0.963446 6.71484 0.816406L7.03418 0.794922C7.85236 0.771072 8.66639 0.938826 9.41699 1.28711C10.1703 1.63669 10.8423 2.16039 11.3809 2.82129L11.9951 3.5752L12.6094 2.82031C13.1482 2.15768 13.8213 1.63376 14.5762 1.28418C15.329 0.935566 16.1455 0.767507 16.9658 0.793945V0.794922C18.6699 0.864514 20.2868 1.63601 21.459 2.95312C22.6322 4.27156 23.2633 6.02899 23.2041 7.84082L23.2031 7.85352V7.86621C23.2031 11.4063 20.7505 13.6807 18.2705 15.9277C17.9612 16.207 17.6487 16.4921 17.3398 16.7783L17.3369 16.7803L16.376 17.6777L16.3662 17.6865L16.3564 17.6963C15.1839 18.8661 13.9528 19.9697 12.6699 21.0049C12.4659 21.1376 12.2346 21.208 12 21.208C11.7652 21.208 11.5333 21.1379 11.3291 21.0049C10.0866 20.001 8.89323 18.932 7.75488 17.8008L7.7373 17.7832L6.66602 16.7832L6.66504 16.7822L5.76758 15.9619C3.15179 13.587 0.796875 11.397 0.796875 7.86621V7.85352Z" fill="black" stroke="black" stroke-width="1.58453"/>
</svg>
