<svg width="21" height="21" viewBox="0 0 21 21" fill="none" xmlns="http://www.w3.org/2000/svg">
<path d="M14.6931 3.41592C15.8433 3.4795 16.9217 3.99508 17.6933 4.85031C18.4649 5.70553 18.8673 6.83108 18.8126 7.98166C18.8126 10.6697 16.4921 12.3208 14.2653 14.3009C12.0673 16.2635 10.8834 17.3363 10.5001 17.5839C10.0828 17.3135 8.62502 15.9888 6.73502 14.3009C4.49852 12.3129 2.18764 10.646 2.18764 7.98166C2.13302 6.83108 2.53536 5.70553 3.307 4.85031C4.07863 3.99508 5.15702 3.4795 6.30715 3.41592C6.94427 3.39661 7.57551 3.54295 8.13914 3.84064C8.70278 4.13833 9.17952 4.57718 9.52277 5.11429C10.2578 6.14242 10.3803 6.65691 10.5028 6.65691C10.6253 6.65691 10.746 6.14242 11.474 5.11167C11.8153 4.57207 12.2922 4.13148 12.8571 3.83391C13.422 3.53634 14.0551 3.39221 14.6931 3.41592ZM14.6931 1.66591C13.8986 1.64048 13.1085 1.79461 12.3818 2.11685C11.6551 2.43908 11.0104 2.92111 10.4958 3.52704C9.9816 2.92288 9.33824 2.44196 8.61325 2.11982C7.88825 1.79769 7.10014 1.64256 6.30715 1.66591C4.69266 1.72905 3.16885 2.4289 2.06894 3.61244C0.969032 4.79597 0.382515 6.36688 0.437645 7.98166C0.437645 11.1404 2.66889 13.0803 4.82577 14.9554C5.07339 15.1707 5.32365 15.3877 5.57215 15.609L6.47077 16.4123C7.45081 17.3448 8.47825 18.2263 9.54902 19.053C9.83233 19.2365 10.1626 19.3341 10.5001 19.3341C10.8377 19.3341 11.168 19.2365 11.4513 19.053C12.5561 18.201 13.6152 17.2912 14.624 16.3274L15.4308 15.6064C15.6871 15.3789 15.947 15.1523 16.2051 14.9292C18.2474 13.1573 20.5626 11.1492 20.5626 7.98166C20.6178 6.36688 20.0313 4.79597 18.9313 3.61244C17.8314 2.4289 16.3076 1.72905 14.6931 1.66591Z" fill="#262626"/>
</svg>
