<svg xmlns="http://www.w3.org/2000/svg" width="23.285715103149414" height="22.14285659790039" fill="none" style=""><rect id="backgroundrect" width="100%" height="100%" x="0" y="0" fill="none" stroke="none"/>

<g class="currentLayer" style=""><title>Layer 1</title><polyline fill="#e84141" stroke="#e84141" stroke-width="2" stroke-linejoin="round" stroke-dashoffset="" fill-rule="nonzero" marker-start="" marker-mid="" marker-end="" id="svg_4" points="13.199059972648683,8.017926308968015 12.95027678616043,8.103971494210725 12.867346473832185,8.103971494210725 12.701489724423936,8.190016679453436 12.701489724423936,8.190016679453436 12.535632975015687,8.276061864696146 12.452706537935683,8.276061864696146 12.286849788527434,8.276061864696146 12.20391947619919,8.362107049938857 12.20391947619919,8.362107049938857 12.20391947619919,8.448152235181567 12.20391947619919,8.448152235181567 12.20391947619919,8.534197420424277 12.369776225607438,8.534197420424277 12.618563287343932,8.534197420424277 12.78442003675218,8.534197420424277 12.95027678616043,8.534197420424277 13.281990284976928,8.534197420424277 13.530773471465182,8.534197420424277 13.779560533201675,8.448152235181567 14.028343719689929,8.362107049938857 14.360057218506427,8.276061864696146 14.60884428024292,8.190016679453436 14.774701029651169,8.103971494210725 14.857627466731174,8.017926308968015 14.857627466731174,8.017926308968015 14.774701029651169,8.017926308968015 14.60884428024292,7.93188062111318 14.360057218506427,7.93188062111318 14.111274032018173,7.93188062111318 13.779560533201675,7.845835938482594 13.530773471465182,7.845835938482594 13.199059972648683,7.845835938482594 12.78442003675218,7.845835938482594 12.452706537935683,7.93188062111318 12.120993039119185,7.93188062111318 11.789279540302687,8.017926308968015 11.457566041486189,8.017926308968015 11.125848667421451,8.103971494210725 10.959991918013202,8.190016679453436 10.711208731524948,8.276061864696146 10.711208731524948,8.276061864696146 10.794135168604953,8.276061864696146 11.042922230341446,8.276061864696146 11.208778979749695,8.276061864696146 11.457566041486189,8.276061864696146 11.706349227974442,8.276061864696146 11.955136289710936,8.103971494210725 12.20391947619919,8.017926308968015 12.452706537935683,7.93188062111318 12.701489724423936,7.845835938482594 12.95027678616043,7.673745567997173 13.033203223240434,7.587700382754463 13.199059972648683,7.501655197511752 13.199059972648683,7.4156095096569175 13.199059972648683,7.329564827026331 13.199059972648683,7.329564827026331 13.199059972648683,7.243519139171497 13.116133535568679,7.243519139171497 13.033203223240434,7.157473451316662 12.867346473832185,7.157473451316662 12.701489724423936,7.071428768686076 12.452706537935683,7.071428768686076 12.120993039119185,7.071428768686076 11.872205977382691,7.071428768686076 11.540492478566193,7.071428768686076 11.208778979749695,7.157473451316662 10.877065480933197,7.243519139171497 10.5453519821167,7.4156095096569175 10.296564920380206,7.587700382754463 10.130708170971957,7.7597907532398835 9.964851421563708,8.103971494210725 9.964851421563708,8.103971494210725 10.047781733891952,8.190016679453436 10.213638483300201,8.190016679453436 10.37949523270845,8.190016679453436 10.628282294444944,8.190016679453436 11.042922230341446,8.190016679453436 11.125848667421451,8.190016679453436 11.457566041486189,8.103971494210725 11.789279540302687,8.017926308968015 12.120993039119185,7.93188062111318 12.452706537935683,7.7597907532398835 12.78442003675218,7.673745567997173 13.033203223240434,7.4156095096569175 13.199059972648683,7.243519139171497 13.199059972648683,7.071428768686076 13.199059972648683,6.8993378955885305 13.116133535568679,6.813293212957944 13.033203223240434,6.641202339860399 12.867346473832185,6.469111969374978 12.618563287343932,6.210976413646847 12.369776225607438,6.038886043161426 12.120993039119185,5.866795672676005 11.706349227974442,5.522614429093039 11.374635729157944,5.436569746462453 11.042922230341446,5.350524561219743 10.711208731524948,5.350524561219743 10.37949523270845,5.350524561219743 10.047781733891952,5.350524561219743 9.63313792274721,5.350524561219743 9.301424423930712,5.350524561219743 9.052641237442458,5.436569746462453 8.72092773862596,5.522614429093039 8.72092773862596,5.522614429093039 8.72092773862596,5.608660116947874 8.72092773862596,5.608660116947874 8.72092773862596,5.608660116947874 8.803854175705965,5.608660116947874 8.886784488034209,5.6947053021905845 8.969710925114214,5.6947053021905845 9.135567674522463,5.6947053021905845 9.301424423930712,5.6947053021905845 9.46728117333896,5.6947053021905845 9.63313792274721,5.6947053021905845 9.798994672155459,5.6947053021905845 10.047781733891952,5.6947053021905845 10.213638483300201,5.6947053021905845 10.37949523270845,5.608660116947874 10.462425545036695,5.608660116947874 10.5453519821167,5.522614429093039 10.628282294444944,5.522614429093039 10.628282294444944,5.436569746462453 10.711208731524948,5.436569746462453 10.711208731524948,5.436569746462453 10.628282294444944,5.436569746462453 10.5453519821167,5.436569746462453 10.462425545036695,5.350524561219743 10.296564920380206,5.350524561219743 10.130708170971957,5.350524561219743 9.964851421563708,5.350524561219743 9.716068235075454,5.350524561219743 9.301424423930712,5.350524561219743 8.969710925114214,5.436569746462453 8.637997426297716,5.522614429093039 8.306283927481218,5.6947053021905845 8.140427178072969,5.6947053021905845 7.97457042866472,5.866795672676005 7.725787242176466,6.124931228404137 7.725787242176466,6.124931228404137 7.725787242176466,6.210976413646847 7.725787242176466,6.2970215988895575 7.725787242176466,6.2970215988895575 7.891643991584715,6.2970215988895575 8.057500740992964,6.2970215988895575 8.306283927481218,6.2970215988895575 8.637997426297716,6.2970215988895575 8.803854175705965,6.2970215988895575 9.052641237442458,6.210976413646847 9.301424423930712,6.210976413646847 9.550211485667205,6.124931228404137 9.798994672155459,6.038886043161426 10.047781733891952,5.952840355306591 10.213638483300201,5.7807499848211705 10.213638483300201,5.608660116947874 10.213638483300201,5.522614429093039 10.213638483300201,5.436569746462453 10.130708170971957,5.350524561219743 9.964851421563708,5.264478873364908 9.798994672155459,5.178433185510073 9.550211485667205,5.006342815024652 9.301424423930712,5.006342815024652 9.052641237442458,4.920297629781942 8.72092773862596,4.920297629781942 8.472140676889467,4.920297629781942 8.140427178072969,4.920297629781942 7.725787242176466,4.920297629781942 7.394071805735848,4.920297629781942 7.145286681623475,5.006342815024652 6.8135731828069765,5.178433185510073 6.4818596839904785,5.350524561219743 6.398931309286354,5.522614429093039 6.398931309286354,5.608660116947874 6.398931309286354,5.6947053021905845 6.4818596839904785,5.6947053021905845 6.6477164333987275,5.6947053021905845 6.8135731828069765,5.7807499848211705 6.979429932215226,5.7807499848211705 7.228215056327599,5.7807499848211705 7.477000180439973,5.7807499848211705 7.725787242176466,5.7807499848211705 7.97457042866472,5.7807499848211705 8.223357490401213,5.6947053021905845 8.389214239809462,5.608660116947874 8.637997426297716,5.522614429093039 8.969710925114214,5.436569746462453 9.052641237442458,5.178433185510073 9.135567674522463,5.092388502879487 9.135567674522463,4.920297629781942 9.135567674522463,4.920297629781942 9.052641237442458,4.834252444539231 8.969710925114214,4.748207259296521 8.803854175705965,4.662162074053811 8.555070989217711,4.5761173914232245 8.306283927481218,4.49007170356839 8.140427178072969,4.49007170356839 7.808713679256471,4.404026518325679 7.477000180439973,4.404026518325679 7.311143431031724,4.404026518325679 6.979429932215226,4.404026518325679 6.730644808102852,4.404026518325679 6.4818596839904785,4.49007170356839 6.233074559878105,4.49007170356839 6.1501461851739805,4.662162074053811 6.1501461851739805,4.748207259296521 6.1501461851739805,4.834252444539231 6.233074559878105,4.920297629781942 6.233074559878105,4.920297629781942 6.398931309286354,5.092388502879487 6.564788058694603,5.178433185510073 6.8135731828069765,5.178433185510073 7.06235830691935,5.264478873364908 7.228215056327599,5.350524561219743 7.477000180439973,5.350524561219743 7.725787242176466,5.350524561219743 7.97457042866472,5.350524561219743 8.223357490401213,5.264478873364908 8.472140676889467,5.178433185510073 8.555070989217711,5.006342815024652 8.637997426297716,4.920297629781942 8.637997426297716,4.834252444539231 8.637997426297716,4.748207259296521 8.637997426297716,4.662162074053811 8.555070989217711,4.5761173914232245 8.472140676889467,4.404026518325679 8.389214239809462,4.317981333082969 8.223357490401213,4.231936147840258 8.140427178072969,4.231936147840258 7.97457042866472,4.145890459985424 7.808713679256471,4.0598457773548375 7.642856929848222,4.0598457773548375 7.394071805735848,3.973800340806065 7.228215056327599,3.973800340806065 6.896501557511101,3.973800340806065 6.6477164333987275,3.973800340806065 6.398931309286354,4.0598457773548375 6.1501461851739805,4.0598457773548375 5.901361061061607,4.145890459985424 5.569647562245109,4.317981333082969 5.486719187540984,4.404026518325679 5.40379081283686,4.5761173914232245 5.40379081283686,4.662162074053811 5.40379081283686,4.662162074053811 5.40379081283686,4.748207259296521 5.486719187540984,4.748207259296521 5.652575936949233,4.834252444539231 5.8184326863574825,4.920297629781942 5.9842894357657315,4.920297629781942 6.233074559878105,4.920297629781942 6.398931309286354,5.006342815024652 6.6477164333987275,5.006342815024652 6.896501557511101,5.006342815024652 7.06235830691935,5.006342815024652 7.394071805735848,4.920297629781942 7.559930492768217,4.834252444539231 7.725787242176466,4.748207259296521 7.808713679256471,4.5761173914232245 7.891643991584715,4.49007170356839 7.891643991584715,4.317981333082969 7.891643991584715,4.317981333082969 7.891643991584715,4.231936147840258 7.808713679256471,4.145890459985424 7.725787242176466,4.0598457773548375 7.559930492768217,4.0598457773548375 7.477000180439973,3.973800340806065 7.311143431031724,3.973800340806065 7.145286681623475,3.973800340806065 6.896501557511101,3.973800340806065 6.730644808102852,3.973800340806065 6.4818596839904785,3.973800340806065 6.233074559878105,4.0598457773548375 6.067217810469856,4.0598457773548375 5.735504311653358,4.231936147840258 5.569647562245109,4.404026518325679 5.40379081283686,4.5761173914232245 5.237934063428611,4.748207259296521 5.155005688724486,5.006342815024652 5.155005688724486,5.178433185510073 5.155005688724486,5.264478873364908 5.155005688724486,5.264478873364908 5.155005688724486,5.264478873364908 5.237934063428611,5.264478873364908 5.320862438132735,5.264478873364908 5.40379081283686,5.350524561219743 5.569647562245109,5.350524561219743 5.735504311653358,5.350524561219743 5.9842894357657315,5.350524561219743 6.233074559878105,5.350524561219743 6.4818596839904785,5.264478873364908 6.6477164333987275,5.178433185510073 6.896501557511101,5.092388502879487 7.06235830691935,4.920297629781942 7.228215056327599,4.834252444539231 7.311143431031724,4.662162074053811 7.311143431031724,4.5761173914232245 7.311143431031724,4.49007170356839 7.311143431031724,4.404026518325679 7.311143431031724,4.404026518325679 7.228215056327599,4.231936147840258 7.145286681623475,4.145890459985424 6.979429932215226,4.0598457773548375 6.8135731828069765,3.973800340806065 6.6477164333987275,3.8877551555633545 6.4818596839904785,3.8877551555633545 6.3160029345822295,3.8877551555633545 6.067217810469856,3.8877551555633545 5.901361061061607,3.8877551555633545 5.735504311653358,3.8877551555633545 5.569647562245109,4.0598457773548375 5.40379081283686,4.145890459985424 5.320862438132735,4.317981333082969 5.237934063428611,4.404026518325679 5.155005688724486,4.662162074053811 5.155005688724486,4.748207259296521 5.155005688724486,4.920297629781942 5.155005688724486,4.920297629781942 5.237934063428611,5.006342815024652 5.320862438132735,5.092388502879487 5.486719187540984,5.178433185510073 5.569647562245109,5.178433185510073 5.652575936949233,5.264478873364908 5.735504311653358,5.264478873364908 5.901361061061607,5.264478873364908 5.9842894357657315,5.264478873364908 6.1501461851739805,5.264478873364908 6.3160029345822295,5.264478873364908 6.4818596839904785,5.264478873364908 6.564788058694603,5.178433185510073 6.6477164333987275,5.092388502879487 6.730644808102852,5.006342815024652 6.8135731828069765,4.920297629781942 6.8135731828069765,4.834252444539231 6.8135731828069765,4.662162074053811 6.8135731828069765,4.662162074053811 6.730644808102852,4.49007170356839 6.6477164333987275,4.49007170356839 6.564788058694603,4.404026518325679 6.4818596839904785,4.404026518325679 6.398931309286354,4.317981333082969 6.1501461851739805,4.317981333082969 5.9842894357657315,4.317981333082969 5.735504311653358,4.317981333082969 5.569647562245109,4.317981333082969 5.320862438132735,4.317981333082969 5.072075376396242,4.404026518325679 4.8232902522838685,4.49007170356839 4.574507065795615,4.5761173914232245 4.325721941683241,4.748207259296521 4.1598632546508725,5.006342815024652 3.9940065052426235,5.264478873364908 3.8281497558343744,5.436569746462453 3.8281497558343744,5.7807499848211705 3.8281497558343744,5.952840355306591 3.8281497558343744,6.038886043161426 3.911078130538499,6.124931228404137 3.9940065052426235,6.124931228404137 4.1598632546508725,6.210976413646847 4.325721941683241,6.2970215988895575 4.49157869109149,6.2970215988895575 4.657435440499739,6.2970215988895575 4.906218626987993,6.2970215988895575 5.072075376396242,6.210976413646847 5.237934063428611,6.038886043161426 5.486719187540984,5.952840355306591 5.652575936949233,5.7807499848211705 5.8184326863574825,5.6947053021905845 5.9842894357657315,5.522614429093039 6.067217810469856,5.350524561219743 6.067217810469856,5.264478873364908 6.067217810469856,5.092388502879487 6.067217810469856,5.006342815024652 5.9842894357657315,4.834252444539231 5.901361061061607,4.748207259296521 5.735504311653358,4.5761173914232245 5.569647562245109,4.5761173914232245 5.40379081283686,4.49007170356839 5.237934063428611,4.49007170356839 5.072075376396242,4.49007170356839 4.906218626987993,4.49007170356839 4.657435440499739,4.5761173914232245 4.408648378763246,4.748207259296521 4.242791629354997,4.920297629781942 3.9940065052426235,5.092388502879487 3.8281497558343744,5.436569746462453 3.74522138113025,5.6947053021905845 3.6622930064261254,5.952840355306591 3.579364631722001,6.210976413646847 3.4964362570178764,6.469111969374978 3.4964362570178764,6.72724752510311 3.579364631722001,6.8993378955885305 3.6622930064261254,6.985383080831241 3.74522138113025,7.071428768686076 3.74522138113025,7.071428768686076 3.911078130538499,7.157473451316662 4.076934879946748,7.157473451316662 4.242791629354997,7.157473451316662 4.408648378763246,7.157473451316662 4.574507065795615,7.157473451316662 4.8232902522838685,7.071428768686076 4.9891470016921176,6.985383080831241 5.155005688724486,6.8993378955885305 5.320862438132735,6.813293212957944 5.486719187540984,6.641202339860399 5.652575936949233,6.469111969374978 5.735504311653358,6.2970215988895575 5.735504311653358,6.124931228404137 5.735504311653358,6.038886043161426 5.735504311653358,5.866795672676005 5.652575936949233,5.7807499848211705 5.569647562245109,5.608660116947874 5.40379081283686,5.608660116947874 5.237934063428611,5.436569746462453 5.072075376396242,5.436569746462453 4.8232902522838685,5.350524561219743 4.574507065795615,5.350524561219743 4.325721941683241,5.350524561219743 4.076934879946748,5.350524561219743 3.8281497558343744,5.350524561219743 3.579364631722001,5.436569746462453 3.247651132905503,5.608660116947874 3.081794383497254,5.7807499848211705 2.915937634089005,6.038886043161426 2.8330092593848804,6.2970215988895575 2.750080884680756,6.641202339860399 2.750080884680756,6.8993378955885305 2.750080884680756,7.243519139171497 2.8330092593848804,7.501655197511752 3.081794383497254,7.7597907532398835 3.247651132905503,7.845835938482594 3.413507882313752,7.93188062111318 3.579364631722001,7.93188062111318 3.74522138113025,7.93188062111318 3.911078130538499,7.93188062111318 4.076934879946748,7.93188062111318 4.1598632546508725,7.93188062111318 4.325721941683241,7.845835938482594 4.408648378763246,7.7597907532398835 4.574507065795615,7.587700382754463 4.740361877579744,7.329564827026331 4.8232902522838685,7.157473451316662 4.906218626987993,6.8993378955885305 4.906218626987993,6.641202339860399 4.9891470016921176,6.2970215988895575 4.9891470016921176,6.124931228404137 4.906218626987993,5.952840355306591 4.8232902522838685,5.866795672676005 4.740361877579744,5.7807499848211705 4.574507065795615,5.6947053021905845 4.408648378763246,5.608660116947874 4.242791629354997,5.608660116947874 3.9940065052426235,5.608660116947874 3.74522138113025,5.608660116947874 3.579364631722001,5.6947053021905845 3.3305795076096274,5.7807499848211705 3.081794383497254,5.866795672676005 2.915937634089005,6.124931228404137 2.6671525099766313,6.2970215988895575 2.584224135272507,6.555157154617689 2.418367385864258,6.8993378955885305 2.418367385864258,7.243519139171497 2.418367385864258,7.587700382754463 2.418367385864258,7.93188062111318 2.584224135272507,8.190016679453436 2.6671525099766313,8.534197420424277 2.8330092593848804,8.534197420424277 2.9988660087931294,8.620242605666988 3.1647227582013784,8.706287790909698 3.3305795076096274,8.792332976152409 3.6622930064261254,8.792332976152409 3.8281497558343744,8.792332976152409 4.076934879946748,8.792332976152409 4.325721941683241,8.792332976152409 4.574507065795615,8.792332976152409 4.740361877579744,8.620242605666988 4.8232902522838685,8.534197420424277 4.9891470016921176,8.362107049938857 5.072075376396242,8.190016679453436 5.072075376396242,8.017926308968015 5.155005688724486,7.7597907532398835 5.155005688724486,7.501655197511752 5.155005688724486,7.243519139171497 5.155005688724486,6.985383080831241 5.072075376396242,6.72724752510311 4.8232902522838685,6.555157154617689 4.657435440499739,6.469111969374978 4.49157869109149,6.3830662815201435 4.325721941683241,6.3830662815201435 4.076934879946748,6.3830662815201435 3.911078130538499,6.469111969374978 3.74522138113025,6.555157154617689 3.4964362570178764,6.72724752510311 3.3305795076096274,6.985383080831241 3.1647227582013784,7.243519139171497 2.9988660087931294,7.587700382754463 2.8330092593848804,7.93188062111318 2.750080884680756,8.276061864696146 2.750080884680756,8.620242605666988 2.750080884680756,8.96442334663783 2.750080884680756,9.30860509283292 2.8330092593848804,9.566740648561051 2.9988660087931294,9.738831019046472 3.1647227582013784,9.824876204289183 3.3305795076096274,9.910921389531893 3.4964362570178764,9.910921389531893 3.579364631722001,9.910921389531893 3.74522138113025,9.910921389531893 3.911078130538499,9.910921389531893 4.1598632546508725,9.910921389531893 4.325721941683241,9.910921389531893 4.49157869109149,9.738831019046472 4.740361877579744,9.652785833803762 4.906218626987993,9.480695463318341 5.072075376396242,9.30860509283292 5.155005688724486,9.1365147223475 5.237934063428611,8.96442334663783 5.320862438132735,8.792332976152409 5.320862438132735,8.706287790909698 5.320862438132735,8.534197420424277 5.320862438132735,8.448152235181567 5.237934063428611,8.362107049938857 5.155005688724486,8.276061864696146 5.072075376396242,8.276061864696146 4.906218626987993,8.190016679453436 4.740361877579744,8.190016679453436 4.574507065795615,8.190016679453436 4.325721941683241,8.190016679453436 4.076934879946748,8.276061864696146 3.8281497558343744,8.362107049938857 3.579364631722001,8.448152235181567 3.3305795076096274,8.534197420424277 3.081794383497254,8.706287790909698 2.8330092593848804,8.87837816139512 2.6671525099766313,9.05046853188054 2.5012957605683823,9.22255990759021 2.418367385864258,9.566740648561051 2.418367385864258,9.738831019046472 2.5012957605683823,9.910921389531893 2.584224135272507,9.996966574774603 2.584224135272507,10.083011760017314 2.6671525099766313,10.169056945260024 2.6671525099766313,10.255102130502735 2.6671525099766313,10.255102130502735 2.750080884680756,10.255102130502735 2.750080884680756,10.255102130502735 2.750080884680756,10.255102130502735 2.8330092593848804,10.341147315745445 2.8330092593848804,10.341147315745445 2.915937634089005,10.427192500988156 3.081794383497254,10.513237686230866 3.081794383497254,10.513237686230866 3.1647227582013784,10.599282871473577 3.247651132905503,10.685328056716287 3.413507882313752,10.685328056716287 3.413507882313752,10.771373241958997 3.4964362570178764,10.771373241958997 3.4964362570178764,10.857417421977459 3.579364631722001,10.943463612444418 3.6622930064261254,11.029508797687129 3.74522138113025,11.11555297770559 3.8281497558343744,11.2015981629483 3.911078130538499,11.28764435341526 3.9940065052426235,11.37369054388222 4.1598632546508725,11.45973572912493 4.242791629354997,11.545779909143391 4.325721941683241,11.63182609961035 4.408648378763246,11.63182609961035 4.49157869109149,11.71787128485306 4.49157869109149,11.803916470095771 4.657435440499739,11.889961655338482 4.657435440499739,11.976006840581192 4.740361877579744,12.062052025823903 4.8232902522838685,12.148097211066613 4.906218626987993,12.148097211066613 4.906218626987993,12.234142396309323 4.906218626987993,12.234142396309323 4.9891470016921176,12.320187581552034 4.9891470016921176,12.320187581552034 4.9891470016921176,12.406232766794744 5.072075376396242,12.406232766794744 5.155005688724486,12.492276946813206 5.155005688724486,12.492276946813206 5.155005688724486,12.578323137280165 5.155005688724486,12.578323137280165 5.237934063428611,12.664367317298627 5.320862438132735,12.664367317298627 5.320862438132735,12.750413507765586 5.40379081283686,12.836458693008296 5.40379081283686,12.836458693008296 5.486719187540984,12.836458693008296 5.486719187540984,12.922503878251007 5.486719187540984,12.922503878251007 5.569647562245109,12.922503878251007 5.569647562245109,12.922503878251007 5.569647562245109,13.008549063493717 5.569647562245109,13.008549063493717 5.569647562245109,13.008549063493717 5.652575936949233,13.008549063493717 5.652575936949233,13.008549063493717 5.652575936949233,13.008549063493717 5.735504311653358,13.094594248736428 5.735504311653358,13.094594248736428 5.735504311653358,13.094594248736428 5.8184326863574825,13.094594248736428 5.8184326863574825,13.094594248736428 5.901361061061607,13.180639433979138 5.9842894357657315,13.180639433979138 5.9842894357657315,13.180639433979138 6.067217810469856,13.2666836139976 6.067217810469856,13.2666836139976 6.067217810469856,13.2666836139976 6.1501461851739805,13.2666836139976 6.1501461851739805,13.2666836139976 6.233074559878105,13.2666836139976 6.3160029345822295,13.352729804464559 6.3160029345822295,13.352729804464559 6.398931309286354,13.43877498970727 6.398931309286354,13.43877498970727 6.4818596839904785,13.43877498970727 6.4818596839904785,13.43877498970727 6.4818596839904785,13.43877498970727 6.564788058694603,13.524821180174229 6.6477164333987275,13.524821180174229 6.730644808102852,13.61086536019269 6.730644808102852,13.61086536019269 6.730644808102852,13.61086536019269 6.8135731828069765,13.6969105454354 6.896501557511101,13.6969105454354 6.896501557511101,13.78295673590236 6.896501557511101,13.78295673590236 6.979429932215226,13.78295673590236 6.979429932215226,13.86900192114507 7.06235830691935,13.95504710638778 7.145286681623475,13.95504710638778 7.228215056327599,14.041092291630491 7.311143431031724,14.041092291630491 7.394071805735848,14.127136471648953 7.477000180439973,14.213181656891663 7.477000180439973,14.213181656891663 7.642856929848222,14.299227847358623 7.642856929848222,14.299227847358623 7.725787242176466,14.385272027377084 7.725787242176466,14.385272027377084 7.808713679256471,14.471317212619795 7.808713679256471,14.471317212619795 7.891643991584715,14.557362397862505 7.97457042866472,14.643407583105216 7.97457042866472,14.729453773572175 8.057500740992964,14.729453773572175 8.140427178072969,14.815497953590636 8.223357490401213,14.901543138833347 8.306283927481218,14.987589329300306 8.389214239809462,15.073633509318768 8.472140676889467,15.073633509318768 8.472140676889467,15.159679699785727 8.555070989217711,15.245724885028437 8.555070989217711,15.245724885028437 8.637997426297716,15.331769065046899 8.72092773862596,15.331769065046899 8.803854175705965,15.41781425028961 8.886784488034209,15.41781425028961 8.886784488034209,15.503860440756569 8.886784488034209,15.503860440756569 8.969710925114214,15.503860440756569 8.969710925114214,15.589906631223528 8.969710925114214,15.589906631223528 9.052641237442458,15.675951816466238 9.052641237442458,15.675951816466238 9.135567674522463,15.7619959964847 9.135567674522463,15.7619959964847 9.135567674522463,15.7619959964847 9.218497986850707,15.7619959964847 9.218497986850707,15.7619959964847 9.301424423930712,15.848042186951659 9.301424423930712,15.848042186951659 9.384354736258956,15.93408737219437 9.384354736258956,15.93408737219437 9.46728117333896,16.02013155221283 9.550211485667205,16.02013155221283 9.550211485667205,16.106175732231293 9.63313792274721,16.106175732231293 9.63313792274721,16.192221922698252 9.716068235075454,16.192221922698252 9.716068235075454,16.192221922698252 9.798994672155459,16.278266102716714 9.798994672155459,16.278266102716714 9.798994672155459,16.278266102716714 9.798994672155459,16.364311287959424 9.881924984483703,16.364311287959424 9.881924984483703,16.364311287959424 9.881924984483703,16.364311287959424 9.964851421563708,16.450356473202135 9.964851421563708,16.450356473202135 10.047781733891952,16.450356473202135 10.047781733891952,16.536403668893342 10.047781733891952,16.536403668893342 10.047781733891952,16.536403668893342 10.130708170971957,16.536403668893342 10.130708170971957,16.536403668893342 10.130708170971957,16.536403668893342 10.213638483300201,16.536403668893342 10.213638483300201,16.622446843687555 10.213638483300201,16.622446843687555 10.296564920380206,16.622446843687555 10.296564920380206,16.622446843687555 10.37949523270845,16.622446843687555 10.37949523270845,16.622446843687555 10.462425545036695,16.622446843687555 10.5453519821167,16.622446843687555 10.5453519821167,16.622446843687555 10.628282294444944,16.622446843687555 10.711208731524948,16.622446843687555 10.794135168604953,16.622446843687555 10.959991918013202,16.622446843687555 10.959991918013202,16.622446843687555 11.042922230341446,16.536403668893342 11.125848667421451,16.536403668893342 11.208778979749695,16.536403668893342 11.208778979749695,16.536403668893342 11.208778979749695,16.536403668893342 11.2917054168297,16.450356473202135 11.2917054168297,16.450356473202135 11.374635729157944,16.450356473202135 11.374635729157944,16.450356473202135 11.457566041486189,16.364311287959424 11.457566041486189,16.364311287959424 11.457566041486189,16.278266102716714 11.623418915646198,16.278266102716714 11.623418915646198,16.192221922698252 11.706349227974442,16.192221922698252 11.706349227974442,16.192221922698252 11.789279540302687,16.106175732231293 11.872205977382691,16.106175732231293 11.955136289710936,16.02013155221283 11.955136289710936,16.02013155221283 12.03806272679094,15.93408737219437 12.120993039119185,15.848042186951659 12.120993039119185,15.848042186951659 12.120993039119185,15.7619959964847 12.20391947619919,15.7619959964847 12.286849788527434,15.675951816466238 12.286849788527434,15.675951816466238 12.369776225607438,15.589906631223528 12.369776225607438,15.503860440756569 12.452706537935683,15.503860440756569 12.535632975015687,15.41781425028961 12.618563287343932,15.331769065046899 12.618563287343932,15.245724885028437 12.701489724423936,15.159679699785727 12.78442003675218,15.159679699785727 12.78442003675218,15.159679699785727 12.78442003675218,15.073633509318768 12.867346473832185,15.073633509318768 12.95027678616043,14.987589329300306 13.033203223240434,14.901543138833347 13.033203223240434,14.901543138833347 13.116133535568679,14.729453773572175 13.116133535568679,14.729453773572175 13.199059972648683,14.643407583105216 13.199059972648683,14.643407583105216 13.281990284976928,14.643407583105216 13.364916722056932,14.471317212619795 13.364916722056932,14.471317212619795 13.447847034385177,14.385272027377084 13.530773471465182,14.299227847358623 13.613703783793426,14.127136471648953 13.613703783793426,14.127136471648953 13.613703783793426,14.127136471648953 13.779560533201675,14.041092291630491 13.779560533201675,14.041092291630491 13.86248697028168,13.95504710638778 13.86248697028168,13.86900192114507 13.945417282609924,13.86900192114507 13.945417282609924,13.78295673590236 14.028343719689929,13.6969105454354 14.111274032018173,13.61086536019269 14.111274032018173,13.61086536019269 14.194200469098178,13.524821180174229 14.277130781426422,13.43877498970727 14.360057218506427,13.352729804464559 14.360057218506427,13.352729804464559 14.525917843162915,13.180639433979138 14.525917843162915,13.180639433979138 14.60884428024292,13.094594248736428 14.60884428024292,13.008549063493717 14.691774592571164,13.008549063493717 14.774701029651169,12.922503878251007 14.774701029651169,12.922503878251007 14.857627466731174,12.836458693008296 14.857627466731174,12.836458693008296 14.940557779059418,12.750413507765586 14.940557779059418,12.664367317298627 15.023484216139423,12.664367317298627 15.106414528467667,12.578323137280165 15.106414528467667,12.578323137280165 15.106414528467667,12.492276946813206 15.189340965547672,12.492276946813206 15.189340965547672,12.492276946813206 15.189340965547672,12.492276946813206 15.272271277875916,12.406232766794744 15.272271277875916,12.406232766794744 15.438128027284165,12.320187581552034 15.438128027284165,12.234142396309323 15.52105833961241,12.148097211066613 15.52105833961241,12.148097211066613 15.603984776692414,12.062052025823903 15.686911213772419,11.976006840581192 15.769841526100663,11.976006840581192 15.852771838428907,11.889961655338482 15.852771838428907,11.889961655338482 15.935698275508912,11.803916470095771 15.935698275508912,11.71787128485306 16.018628587837156,11.71787128485306 16.018628587837156,11.63182609961035 16.10155502491716,11.63182609961035 16.10155502491716,11.545779909143391 16.184485337245405,11.545779909143391 16.26741177432541,11.37369054388222 16.26741177432541,11.37369054388222 16.43326852373366,11.28764435341526 16.43326852373366,11.28764435341526 16.516198836061903,11.2015981629483 16.516198836061903,11.2015981629483 16.599125273141908,11.11555297770559 16.682055585470152,11.11555297770559 16.682055585470152,11.029508797687129 16.764982022550157,10.943463612444418 16.764982022550157,10.943463612444418 16.8479123348784,10.857417421977459 16.930842647206646,10.857417421977459 16.930842647206646,10.771373241958997 17.01376520903841,10.771373241958997 17.01376520903841,10.685328056716287 17.096695521366655,10.599282871473577 17.096695521366655,10.599282871473577 17.1796258336949,10.599282871473577 17.1796258336949,10.513237686230866 17.1796258336949,10.513237686230866 17.262556146023144,10.513237686230866 17.262556146023144,10.427192500988156 17.262556146023144,10.427192500988156 17.34548258310315,10.427192500988156 17.34548258310315,10.341147315745445 17.34548258310315,10.341147315745445 17.511339332511398,10.255102130502735 17.511339332511398,10.169056945260024 17.511339332511398,10.083011760017314 17.594269644839642,9.996966574774603 17.594269644839642,9.996966574774603 17.594269644839642,9.996966574774603 17.677196081919647,9.910921389531893 17.677196081919647,9.910921389531893 17.677196081919647,9.910921389531893 17.76012639424789,9.824876204289183 17.76012639424789,9.824876204289183 17.76012639424789,9.738831019046472 17.76012639424789,9.652785833803762 17.76012639424789,9.652785833803762 17.843052831327896,9.652785833803762 17.843052831327896,9.566740648561051 17.843052831327896,9.480695463318341 17.9259792684079,9.480695463318341 17.9259792684079,9.39465027807563 17.9259792684079,9.39465027807563 17.9259792684079,9.30860509283292 18.008909580736145,9.1365147223475 18.008909580736145,9.1365147223475 18.008909580736145,9.05046853188054 18.008909580736145,9.05046853188054 18.008909580736145,8.96442334663783 18.008909580736145,8.96442334663783 18.008909580736145,8.87837816139512 18.008909580736145,8.792332976152409 18.09183601781615,8.792332976152409 18.09183601781615,8.706287790909698 18.09183601781615,8.706287790909698 18.09183601781615,8.620242605666988 18.09183601781615,8.620242605666988 18.09183601781615,8.448152235181567 18.09183601781615,8.448152235181567 18.09183601781615,8.276061864696146 18.09183601781615,8.276061864696146 18.09183601781615,8.190016679453436 18.09183601781615,8.017926308968015 18.09183601781615,8.017926308968015 18.09183601781615,7.845835938482594 18.09183601781615,7.845835938482594 18.09183601781615,7.7597907532398835 18.09183601781615,7.7597907532398835 18.09183601781615,7.7597907532398835 18.09183601781615,7.673745567997173 18.09183601781615,7.673745567997173 18.09183601781615,7.587700382754463 18.09183601781615,7.501655197511752 18.008909580736145,7.4156095096569175 18.008909580736145,7.4156095096569175 18.008909580736145,7.329564827026331 18.008909580736145,7.329564827026331 18.008909580736145,7.243519139171497 17.9259792684079,7.157473451316662 17.9259792684079,7.157473451316662 17.9259792684079,7.071428768686076 17.9259792684079,6.985383080831241 17.9259792684079,6.985383080831241 17.843052831327896,6.8993378955885305 17.843052831327896,6.8993378955885305 17.843052831327896,6.72724752510311 17.76012639424789,6.72724752510311 17.76012639424789,6.641202339860399 17.677196081919647,6.641202339860399 17.677196081919647,6.555157154617689 17.677196081919647,6.555157154617689 17.594269644839642,6.469111969374978 17.594269644839642,6.469111969374978 17.511339332511398,6.3830662815201435 17.511339332511398,6.3830662815201435 17.511339332511398,6.2970215988895575 17.511339332511398,6.2970215988895575 17.428409020183153,6.210976413646847 17.34548258310315,6.210976413646847 17.34548258310315,6.124931228404137 17.262556146023144,6.038886043161426 17.262556146023144,6.038886043161426 17.1796258336949,5.952840355306591 17.1796258336949,5.952840355306591 17.01376520903841,5.866795672676005 17.01376520903841,5.866795672676005 16.930842647206646,5.7807499848211705 16.930842647206646,5.7807499848211705 16.930842647206646,5.6947053021905845 16.8479123348784,5.6947053021905845 16.8479123348784,5.608660116947874 16.764982022550157,5.522614429093039 16.764982022550157,5.522614429093039 16.682055585470152,5.436569746462453 16.682055585470152,5.436569746462453 16.599125273141908,5.350524561219743 16.599125273141908,5.350524561219743 16.599125273141908,5.350524561219743 16.516198836061903,5.264478873364908 16.516198836061903,5.178433185510073 16.43326852373366,5.178433185510073 16.43326852373366,5.092388502879487 16.350342086653654,5.092388502879487 16.350342086653654,5.092388502879487 16.350342086653654,5.006342815024652 16.26741177432541,5.006342815024652 16.26741177432541,5.006342815024652 16.26741177432541,4.920297629781942 16.26741177432541,4.920297629781942 16.184485337245405,4.920297629781942 16.184485337245405,4.834252444539231 16.184485337245405,4.834252444539231 16.10155502491716,4.834252444539231 16.10155502491716,4.834252444539231 16.10155502491716,4.834252444539231 16.10155502491716,4.748207259296521 16.10155502491716,4.748207259296521 16.018628587837156,4.748207259296521 16.018628587837156,4.748207259296521 15.935698275508912,4.662162074053811 15.935698275508912,4.662162074053811 15.935698275508912,4.662162074053811 15.935698275508912,4.662162074053811 15.852771838428907,4.662162074053811 15.852771838428907,4.662162074053811 15.852771838428907,4.662162074053811 15.769841526100663,4.5761173914232245 15.769841526100663,4.5761173914232245 15.769841526100663,4.5761173914232245 15.686911213772419,4.5761173914232245 15.686911213772419,4.5761173914232245 15.603984776692414,4.49007170356839 15.603984776692414,4.49007170356839 15.438128027284165,4.49007170356839 15.438128027284165,4.49007170356839 15.35519771495592,4.404026518325679 15.189340965547672,4.404026518325679 15.106414528467667,4.404026518325679 15.106414528467667,4.404026518325679 14.857627466731174,4.317981333082969 14.774701029651169,4.317981333082969 14.691774592571164,4.231936147840258 14.60884428024292,4.231936147840258 14.360057218506427,4.145890459985424 14.277130781426422,4.145890459985424 14.111274032018173,4.145890459985424 13.945417282609924,4.145890459985424 13.779560533201675,4.145890459985424 13.779560533201675,4.145890459985424 13.69663022087343,4.145890459985424 13.530773471465182,4.145890459985424 13.447847034385177,4.145890459985424 13.281990284976928,4.231936147840258 13.199059972648683,4.317981333082969 13.033203223240434,4.404026518325679 12.95027678616043,4.404026518325679 12.78442003675218,4.49007170356839 12.701489724423936,4.49007170356839 12.618563287343932,4.5761173914232245 12.535632975015687,4.662162074053811 12.452706537935683,4.662162074053811 12.369776225607438,4.748207259296521 12.369776225607438,4.748207259296521 12.286849788527434,4.834252444539231 12.20391947619919,4.834252444539231 12.20391947619919,4.834252444539231 12.20391947619919,4.834252444539231 12.120993039119185,4.920297629781942 12.120993039119185,4.920297629781942 12.03806272679094,4.920297629781942 11.955136289710936,5.006342815024652 11.955136289710936,5.092388502879487 11.789279540302687,5.178433185510073 11.789279540302687,5.178433185510073 11.789279540302687,5.178433185510073 11.706349227974442,5.178433185510073 11.706349227974442,5.178433185510073 11.706349227974442,5.178433185510073 11.706349227974442,5.178433185510073 11.706349227974442,5.178433185510073 11.623418915646198,5.178433185510073 11.623418915646198,5.178433185510073 11.623418915646198,5.178433185510073 11.623418915646198,5.178433185510073 11.623418915646198,5.178433185510073 11.623418915646198,5.178433185510073 11.706349227974442,5.092388502879487 11.706349227974442,5.092388502879487 11.706349227974442,5.006342815024652 11.706349227974442,4.920297629781942 11.706349227974442,4.920297629781942 11.789279540302687,4.834252444539231 11.789279540302687,4.834252444539231 11.872205977382691,4.748207259296521 11.872205977382691,4.748207259296521 11.955136289710936,4.662162074053811 11.955136289710936,4.5761173914232245 12.03806272679094,4.49007170356839 12.03806272679094,4.49007170356839 12.03806272679094,4.49007170356839 12.03806272679094,4.49007170356839 12.120993039119185,4.404026518325679 12.120993039119185,4.404026518325679 12.20391947619919,4.404026518325679 12.20391947619919,4.317981333082969 12.286849788527434,4.317981333082969 12.286849788527434,4.317981333082969 12.369776225607438,4.231936147840258 12.452706537935683,4.231936147840258 12.452706537935683,4.231936147840258 12.452706537935683,4.231936147840258 12.452706537935683,4.145890459985424 12.535632975015687,4.145890459985424 12.618563287343932,4.145890459985424 12.618563287343932,4.145890459985424 12.701489724423936,4.145890459985424 12.701489724423936,4.145890459985424 12.78442003675218,4.145890459985424 12.867346473832185,4.0598457773548375 12.867346473832185,4.0598457773548375 12.95027678616043,4.0598457773548375 13.033203223240434,4.0598457773548375 13.033203223240434,4.0598457773548375 13.116133535568679,4.0598457773548375 13.199059972648683,3.973800340806065 13.281990284976928,3.973800340806065 13.364916722056932,3.973800340806065 13.447847034385177,3.973800340806065 13.530773471465182,3.973800340806065 13.530773471465182,3.8877551555633545 13.613703783793426,3.8877551555633545 13.613703783793426,3.8877551555633545 13.613703783793426,3.8877551555633545 13.69663022087343,3.8877551555633545 13.779560533201675,3.8877551555633545 13.779560533201675,3.8877551555633545 13.779560533201675,3.8877551555633545 13.779560533201675,3.8877551555633545 13.86248697028168,3.8877551555633545 13.86248697028168,3.8877551555633545 13.945417282609924,3.8877551555633545 14.028343719689929,3.8877551555633545 14.028343719689929,3.8877551555633545 14.111274032018173,3.8877551555633545 14.194200469098178,3.8877551555633545 14.194200469098178,3.8877551555633545 14.277130781426422,3.8877551555633545 14.360057218506427,3.8877551555633545 14.360057218506427,3.8877551555633545 14.442987530834671,3.8877551555633545 14.525917843162915,3.8877551555633545 14.525917843162915,3.8877551555633545 14.60884428024292,3.8877551555633545 14.691774592571164,3.8877551555633545 14.691774592571164,3.8877551555633545 14.691774592571164,3.8877551555633545 14.774701029651169,3.8877551555633545 14.774701029651169,3.8877551555633545 14.857627466731174,3.8877551555633545 14.940557779059418,3.8877551555633545 14.940557779059418,3.8877551555633545 15.023484216139423,3.8877551555633545 15.023484216139423,3.8877551555633545 15.106414528467667,3.8877551555633545 15.106414528467667,3.8877551555633545 15.189340965547672,3.8877551555633545 15.189340965547672,3.8877551555633545 15.189340965547672,3.8877551555633545 15.272271277875916,3.8877551555633545 15.35519771495592,3.8877551555633545 15.35519771495592,3.8877551555633545 15.438128027284165,3.8877551555633545 15.438128027284165,3.8877551555633545 15.52105833961241,3.8877551555633545 15.603984776692414,3.8877551555633545 15.603984776692414,3.8877551555633545 15.686911213772419,3.8877551555633545 15.686911213772419,3.8877551555633545 15.769841526100663,3.8877551555633545 15.769841526100663,3.8877551555633545 15.852771838428907,3.8877551555633545 15.852771838428907,3.8877551555633545 15.935698275508912,3.8877551555633545 15.935698275508912,3.8877551555633545 16.018628587837156,3.8877551555633545 16.018628587837156,3.8877551555633545 16.018628587837156,3.8877551555633545 16.10155502491716,3.8877551555633545 16.10155502491716,3.8877551555633545 16.184485337245405,3.8877551555633545 16.184485337245405,3.8877551555633545 16.184485337245405,3.8877551555633545 16.184485337245405,3.8877551555633545 16.26741177432541,3.8877551555633545 16.26741177432541,3.973800340806065 16.26741177432541,3.973800340806065 16.350342086653654,3.973800340806065 16.43326852373366,3.973800340806065 16.43326852373366,3.973800340806065 16.516198836061903,3.973800340806065 16.516198836061903,3.973800340806065 16.516198836061903,3.973800340806065 16.599125273141908,3.973800340806065 16.599125273141908,4.0598457773548375 16.682055585470152,4.0598457773548375 16.682055585470152,4.0598457773548375 16.682055585470152,4.0598457773548375 16.682055585470152,4.0598457773548375 16.682055585470152,4.145890459985424 16.764982022550157,4.145890459985424 16.764982022550157,4.145890459985424 16.764982022550157,4.145890459985424 16.764982022550157,4.145890459985424 16.930842647206646,4.231936147840258 16.930842647206646,4.231936147840258 16.930842647206646,4.231936147840258 17.01376520903841,4.317981333082969 17.01376520903841,4.317981333082969 17.096695521366655,4.317981333082969 17.096695521366655,4.317981333082969 17.096695521366655,4.404026518325679 17.1796258336949,4.404026518325679 17.1796258336949,4.404026518325679 17.1796258336949,4.49007170356839 17.262556146023144,4.49007170356839 17.262556146023144,4.49007170356839 17.262556146023144,4.5761173914232245 17.34548258310315,4.5761173914232245 17.34548258310315,4.662162074053811 17.34548258310315,4.662162074053811 17.34548258310315,4.662162074053811 17.34548258310315,4.662162074053811 17.34548258310315,4.748207259296521 17.428409020183153,4.748207259296521 17.428409020183153,4.834252444539231 17.428409020183153,4.834252444539231 17.428409020183153,4.920297629781942 17.511339332511398,4.920297629781942 17.511339332511398,5.006342815024652 17.511339332511398,5.006342815024652 17.594269644839642,5.092388502879487 17.594269644839642,5.092388502879487 17.594269644839642,5.092388502879487 17.677196081919647,5.178433185510073 17.677196081919647,5.264478873364908 17.677196081919647,5.264478873364908 17.76012639424789,5.264478873364908 17.76012639424789,5.350524561219743 17.76012639424789,5.350524561219743 17.76012639424789,5.350524561219743 17.76012639424789,5.436569746462453 17.76012639424789,5.436569746462453 17.843052831327896,5.522614429093039 17.843052831327896,5.608660116947874 17.843052831327896,5.6947053021905845 17.843052831327896,5.6947053021905845 17.843052831327896,5.7807499848211705 17.9259792684079,5.7807499848211705 17.9259792684079,5.866795672676005 17.9259792684079,5.866795672676005 17.9259792684079,5.952840355306591 17.9259792684079,5.952840355306591 17.9259792684079,6.038886043161426 17.9259792684079,6.124931228404137 18.008909580736145,6.124931228404137 18.008909580736145,6.124931228404137 18.008909580736145,6.210976413646847 18.008909580736145,6.2970215988895575 18.008909580736145,6.2970215988895575 18.008909580736145,6.2970215988895575 18.008909580736145,6.469111969374978 18.008909580736145,6.469111969374978 18.008909580736145,6.469111969374978 18.09183601781615,6.555157154617689 18.09183601781615,6.555157154617689 18.09183601781615,6.641202339860399 18.09183601781615,6.72724752510311 18.09183601781615,6.72724752510311 18.09183601781615,6.813293212957944 18.09183601781615,6.813293212957944 18.09183601781615,6.8993378955885305 18.09183601781615,6.985383080831241 18.09183601781615,7.071428768686076 18.09183601781615,7.071428768686076 18.09183601781615,7.071428768686076 18.09183601781615,7.157473451316662 18.008909580736145,7.243519139171497 18.008909580736145,7.329564827026331 18.008909580736145,7.4156095096569175 18.008909580736145,7.501655197511752 17.9259792684079,7.501655197511752 17.9259792684079,7.501655197511752 17.9259792684079,7.587700382754463 17.9259792684079,7.587700382754463 17.843052831327896,7.587700382754463 17.843052831327896,7.673745567997173 17.843052831327896,7.673745567997173 17.843052831327896,7.673745567997173 17.843052831327896,7.587700382754463 17.843052831327896,7.587700382754463 17.76012639424789,7.501655197511752 17.76012639424789,7.4156095096569175 17.76012639424789,7.243519139171497 17.76012639424789,7.157473451316662 17.677196081919647,7.071428768686076 17.677196081919647,7.071428768686076 17.677196081919647,7.071428768686076 17.677196081919647,6.985383080831241 17.594269644839642,6.985383080831241 17.594269644839642,6.985383080831241 17.594269644839642,6.8993378955885305 17.511339332511398,6.813293212957944 17.511339332511398,6.813293212957944 17.428409020183153,6.641202339860399 17.34548258310315,6.555157154617689 17.262556146023144,6.555157154617689 17.1796258336949,6.469111969374978 17.096695521366655,6.469111969374978 17.01376520903841,6.3830662815201435 16.8479123348784,6.3830662815201435 16.764982022550157,6.2970215988895575 16.764982022550157,6.2970215988895575 16.682055585470152,6.2970215988895575 16.682055585470152,6.2970215988895575 16.516198836061903,6.210976413646847 16.516198836061903,6.210976413646847 16.516198836061903,6.124931228404137 16.43326852373366,6.124931228404137 16.350342086653654,6.124931228404137 16.10155502491716,6.038886043161426 16.018628587837156,5.952840355306591 15.935698275508912,5.952840355306591 15.852771838428907,5.952840355306591 15.769841526100663,5.866795672676005 15.686911213772419,5.866795672676005 15.438128027284165,5.7807499848211705 15.438128027284165,5.6947053021905845 15.35519771495592,5.6947053021905845 15.189340965547672,5.608660116947874 15.189340965547672,5.608660116947874 14.940557779059418,5.522614429093039 14.940557779059418,5.522614429093039 14.774701029651169,5.522614429093039 14.691774592571164,5.436569746462453 14.60884428024292,5.350524561219743 14.442987530834671,5.350524561219743 14.360057218506427,5.264478873364908 14.277130781426422,5.264478873364908 14.277130781426422,5.264478873364908 14.194200469098178,5.178433185510073 14.194200469098178,5.178433185510073 14.194200469098178,5.178433185510073 14.111274032018173,5.092388502879487 14.111274032018173,5.092388502879487 14.111274032018173,5.092388502879487 14.028343719689929,5.092388502879487 14.028343719689929,5.092388502879487 14.028343719689929,5.092388502879487 14.028343719689929,5.092388502879487 13.945417282609924,5.092388502879487 13.945417282609924,5.092388502879487 13.86248697028168,5.092388502879487 13.86248697028168,5.006342815024652 13.779560533201675,5.006342815024652 13.69663022087343,5.006342815024652 13.69663022087343,5.006342815024652 13.613703783793426,5.006342815024652 13.530773471465182,5.006342815024652 13.364916722056932,5.006342815024652 13.364916722056932,5.006342815024652 13.281990284976928,5.006342815024652 13.281990284976928,5.006342815024652 13.199059972648683,5.006342815024652 13.116133535568679,5.006342815024652 13.116133535568679,5.006342815024652 13.116133535568679,5.006342815024652 13.116133535568679,5.006342815024652 13.033203223240434,5.006342815024652 13.033203223240434,5.006342815024652 13.033203223240434,5.006342815024652 13.033203223240434,5.006342815024652 13.033203223240434,5.006342815024652 12.95027678616043,5.006342815024652 12.95027678616043,5.006342815024652 12.867346473832185,5.006342815024652 12.867346473832185,5.006342815024652 12.867346473832185,5.006342815024652 12.78442003675218,5.006342815024652 12.78442003675218,5.092388502879487 12.701489724423936,5.092388502879487 12.701489724423936,5.092388502879487 12.701489724423936,5.092388502879487 12.701489724423936,5.092388502879487 12.618563287343932,5.178433185510073 12.618563287343932,5.178433185510073 12.618563287343932,5.178433185510073 12.618563287343932,5.178433185510073 12.618563287343932,5.264478873364908 " style="color: rgb(0, 0, 0);" class="" transform=""/><path d="M14.4633 3.63533C15.5955 3.69792 16.657 4.20544 17.4166 5.0473C18.1762 5.88915 18.5722 6.9971 18.5184 8.12969C18.5184 10.7757 16.2342 12.401 14.0422 14.3501C11.8785 16.2821 10.7132 17.338 10.3359 17.5818C9.92506 17.3157 8.49011 16.0116 6.62966 14.3501C4.42813 12.3932 2.15339 10.7524 2.15339 8.12969C2.09961 6.9971 2.49567 5.88915 3.25524 5.0473C4.01481 4.20544 5.07633 3.69792 6.20847 3.63533C6.83564 3.61633 7.45701 3.76038 8.01183 4.05342C8.56665 4.34646 9.03594 4.77844 9.37382 5.30715C10.0973 6.3192 10.2179 6.82566 10.3385 6.82566C10.4591 6.82566 10.5779 6.3192 11.2946 5.30457C11.6305 4.77341 12.1 4.33971 12.656 4.0468C13.2121 3.75388 13.8353 3.612 14.4633 3.63533ZM14.4633 1.9127C13.6812 1.88766 12.9035 2.03938 12.1881 2.35658C11.4728 2.67378 10.8382 3.14827 10.3316 3.74472C9.82547 3.15 9.19218 2.67661 8.47852 2.35951C7.76486 2.04241 6.98907 1.88971 6.20847 1.9127C4.61923 1.97484 3.11925 2.66375 2.03654 3.82878C0.953831 4.99381 0.376485 6.54016 0.430753 8.12969C0.430753 11.239 2.62711 13.1486 4.75026 14.9944C4.99402 15.2063 5.24035 15.4199 5.48497 15.6378L6.36954 16.4285C7.33425 17.3465 8.34563 18.2141 9.39966 19.028C9.67854 19.2085 10.0037 19.3046 10.3359 19.3046C10.6681 19.3046 10.9933 19.2085 11.2722 19.028C12.3597 18.1893 13.4022 17.2937 14.3953 16.3449L15.1894 15.6352C15.4418 15.4113 15.6976 15.1882 15.9517 14.9686C17.962 13.2244 20.2411 11.2477 20.2411 8.12969C20.2953 6.54016 19.718 4.99381 18.6353 3.82878C17.5526 2.66375 16.0526 1.97484 14.4633 1.9127Z" fill="#262626" id="svg_1"/></g></svg>