<svg width="21" height="21" viewBox="0 0 21 21" fill="none" xmlns="http://www.w3.org/2000/svg">
<path d="M14.6931 3.41592C15.8433 3.4795 16.9217 3.99508 17.6933 4.85031C18.4649 5.70553 18.8673 6.83108 18.8126 7.98166C18.8126 10.6697 16.4921 12.3208 14.2653 14.3009C12.0673 16.2635 10.8834 17.3363 10.5001 17.5839C10.0828 17.3135 8.62502 15.9888 6.73502 14.3009C4.49852 12.3129 2.18764 10.646 2.18764 7.98166C2.13302 6.83108 2.53536 5.70553 3.307 4.85031C4.07863 3.99508 5.15702 3.4795 6.30715 3.41592C6.94427 3.39661 7.57551 3.54295 8.13914 3.84064C8.70278 4.13833 9.17952 4.57718 9.52277 5.11429C10.2578 6.14242 10.3803 6.65691 10.5028 6.65691C10.6253 6.65691 10.746 6.14242 11.474 5.11167C11.8153 4.57207 12.2922 4.13148 12.8571 3.83391C13.422 3.53634 14.0551 3.39221 14.6931 3.41592ZM14.6931 1.66591C13.8986 1.64048 13.1085 1.79461 12.3818 2.11685C11.6551 2.43908 11.0104 2.92111 10.4958 3.52704C9.9816 2.92288 9.33824 2.44196 8.61325 2.11982C7.88825 1.79769 7.10014 1.64256 6.30715 1.66591C4.69266 1.72905 3.16885 2.4289 2.06894 3.61244C0.969032 4.79597 0.382515 6.36688 0.437645 7.98166C0.437645 11.1404 2.66889 13.0803 4.82577 14.9554C5.07339 15.1707 5.32365 15.3877 5.57215 15.609L6.47077 16.4123C7.45081 17.3448 8.47825 18.2263 9.54902 19.053C9.83233 19.2365 10.1626 19.3341 10.5001 19.3341C10.8377 19.3341 11.168 19.2365 11.4513 19.053C12.5561 18.201 13.6152 17.2912 14.624 16.3274L15.4308 15.6064C15.6871 15.3789 15.947 15.1523 16.2051 14.9292C18.2474 13.1573 20.5626 11.1492 20.5626 7.98166C20.6178 6.36688 20.0313 4.79597 18.9313 3.61244C17.8314 2.4289 16.3076 1.72905 14.6931 1.66591Z" fill="#FF0000"/>
<path d="M10.4296 11.8831C10.4296 11.7375 10.4618 11.4444 10.5026 10.324C10.5111 10.0908 10.5752 10.0596 10.6243 10.0349C10.8166 9.9383 10.9827 9.78306 11.0646 9.58737C11.1463 9.39185 11.2759 9.19672 11.3738 9.00909C11.4779 8.8098 11.6668 8.65924 11.8053 8.47161C11.9355 8.29524 12.0899 8.15401 12.2451 7.98299C12.4002 7.81196 12.5785 7.66539 12.7337 7.48631C12.9039 7.28976 13.0349 7.09566 13.1979 6.94052C13.3469 6.79863 13.4424 6.60704 13.5076 6.41135C13.5401 6.31387 13.589 6.21565 13.6621 6.1343C13.8033 5.97697 14.0444 5.93861 14.2887 5.88144C14.5282 5.82539 14.8897 5.82427 15.1685 5.88095C15.3945 5.92692 15.5269 6.16533 15.6979 6.32046C15.8638 6.47093 15.8855 6.70281 15.9507 6.8985C15.9671 6.94761 15.9832 6.99598 16.0077 6.99671C16.0817 6.99893 16.1459 6.86698 16.2354 6.84231C16.4253 6.78991 16.423 7.19143 16.4315 7.91434C16.4352 8.22328 16.2774 8.41297 16.155 8.60867C16.0441 8.7859 15.952 8.99932 15.8777 9.14664C15.7976 9.30545 16.1459 8.93531 16.2112 8.93506C16.3768 8.93444 16.0819 9.29249 15.9515 9.48818C15.821 9.68387 15.6265 9.91108 15.4548 10.1153C15.3062 10.2921 15.1536 10.4652 15.015 10.6528C14.8779 10.8386 14.5848 11.0994 14.3473 11.3449C14.1806 11.5174 14.0464 11.7356 13.8345 11.9474C13.5652 12.2167 13.3945 12.3708 13.2155 12.4854C13.0009 12.6226 12.8248 12.7783 12.6697 12.9493C12.513 13.122 12.2873 13.2503 12.0916 13.4379C11.9185 13.604 11.7332 13.7389 11.5622 13.8941C11.3912 14.0492 11.2446 14.2275 11.0575 14.3907C10.8181 14.5995 10.6583 14.765 10.5197 14.9527C10.4512 15.0455 10.3646 15.1075 10.2596 15.1002C9.63783 15.0568 9.66441 14.5227 9.50195 14.3756C9.3301 14.22 9.12791 14.0018 8.95616 13.7895C8.79261 13.5873 8.49368 13.2698 8.2396 13.0483C8.06557 12.8965 7.922 12.7148 7.7268 12.5435C7.4447 12.296 7.25455 12.1607 7.05885 12.0302C6.81779 11.8695 6.50598 11.5265 6.21208 11.2164C6.0499 11.0453 5.91866 10.858 5.73958 10.6704C5.56015 10.4824 5.34893 10.3039 5.08019 10.0437C4.8515 9.82233 4.64825 9.53875 4.52585 9.34306C4.415 9.16582 4.35508 8.95241 4.2813 8.74865C4.20035 8.52511 4.22413 8.05921 4.27275 7.73062C4.30294 7.52656 4.43521 7.33997 4.55761 7.14427C4.67558 6.95567 4.85836 6.78587 5.0135 6.62292C5.15539 6.47387 5.34698 6.34612 5.58323 6.13454C5.77057 5.96677 5.98218 5.88975 6.194 5.82451C6.64637 5.6852 7.25259 5.80766 7.44828 5.92151C7.65158 6.03978 7.83893 6.18194 8.03463 6.32853C8.27522 6.50874 8.39303 6.75167 8.51543 6.94736C8.62628 7.1246 8.65395 7.33801 8.67863 7.61481C8.69814 7.83375 8.76829 8.05433 8.81691 8.26663C8.86421 8.47321 9.02823 8.65728 9.15869 8.85298C9.28916 9.04867 9.48363 9.27587 9.65538 9.48818C9.83324 9.70805 10.0377 9.95994 10.2334 10.2128C10.4291 10.4007 10.5918 10.5629 10.7223 10.7586C10.755 10.8077 10.7873 10.8561 10.9182 10.9548" stroke="#FF0000" stroke-width="5" stroke-linecap="round"/>
</svg>
